<svg xmlns="http://www.w3.org/2000/svg" width="119.888" height="50.644"><defs><clipPath id="a"><path fill="none" d="M0 6h119.888v50.644H0z"/></clipPath></defs><g transform="translate(0 -6)" clip-path="url(#a)" style="isolation:isolate"><path d="M5.001 6.024h109.888a5 5 0 015 5v40.619a5 5 0 01-5 5H5.001a5 5 0 01-5-5V11.024a5 5 0 015-5z" fill="#f79125"/><text transform="translate(49.554 26.279)" fill="#fff" font-size="9" font-family="HiraginoSans-W6, Hiragino Sans" letter-spacing=".011em"><tspan x="0" y="0">無料相談</tspan><tspan x="0" y="12">お見積もり</tspan></text><path d="M36.752 14.03l-.014-.03-.012-.007a.57.57 0 00-.268-.146.556.556 0 00-.067-.006.567.567 0 00-.314.03L8.367 26.21a.566.566 0 00-.234.213.446.446 0 00-.037.052.571.571 0 00-.071.298l-.003.013.014.032a.58.58 0 00.035.16l7.855 17.641a3.345 3.345 0 004.41 1.693L43.01 36.216a3.345 3.345 0 001.693-4.411l-7.855-17.64a.537.537 0 00-.096-.134zm-1.675 1.562L28.005 29.88a2.161 2.161 0 01-2.301 1.05l-15.385-4.315zm7.457 19.554L19.861 45.243a2.177 2.177 0 01-2.872-1.103L9.64 27.638l15.786 4.424a3.32 3.32 0 002.046-.213 3.396 3.396 0 001.559-1.419l7.257-14.658 7.349 16.503a2.177 2.177 0 01-1.103 2.871z" fill="#fff"/></g><g transform="translate(104.969 18.142)"><circle cx="5.328" cy="5.328" r="5.328" fill="#fff"/><path d="M4.6 3.54l2.051 2.051L4.6 7.641" fill="none" stroke="#f79125" stroke-linecap="round" stroke-linejoin="round" stroke-width="2"/></g></svg>