<svg version="1.1" id="レイヤー_1" xmlns="http://www.w3.org/2000/svg" x="0" y="0" viewBox="0 0 119.9 50.6" xml:space="preserve"><style>.st3{fill:#fff}</style><path fill="none" d="M0 0h119.9v50.6H0z"/><path d="M5 0h109.9c2.8 0 5 2.2 5 5v40.6c0 2.8-2.2 5-5 5H5c-2.8 0-5-2.2-5-5V5c0-2.7 2.2-5 5-5z" fill="#2771f4" stroke="#fff" stroke-miterlimit="10"/><text transform="translate(41.023 33.35)" class="st3" font-size="18" font-family="HiraginoSans-W4-83pv-RKSJ-H" id="_0120-310-823_1_">電話する</text><path class="st3" d="M27.9 44.6c2.5 1.3 5.8.9 7.5-.2 1.8-1.2 1.8-1.9 1.7-2.7-.1-.8-.7-2.1-2.9-4.1-1.9-1.7-2.9-2-3.6-2.3-.6-.2-2.1-.3-2.6.7-.3.7-.7 1.5-1.2 1.7-.7.2-1.5-.3-2.2-1-1.4-1.4-3.5-4.5-4.6-6.5-1.2-2-2.9-5.3-3.5-7.2-.3-.9-.3-1.9.2-2.4.4-.4 1.3-.3 2.1-.3 1.1.1 1.8-1.3 1.9-2 .1-.8.3-1.7-.3-4.2-.7-2.8-1.5-3.9-2.2-4.5-.7-.3-1.4-.6-3.2.4-1.9 1-3.7 3.7-3.8 6.5-.1 2.8.4 8.4 4.9 16.1 4.6 7.7 9.3 10.8 11.8 12z"/></svg>