<svg data-name="组 3630" xmlns="http://www.w3.org/2000/svg" width="134.274" height="167.31"><g data-name="矩形 2767" fill="#fff" stroke="#1276cf"><rect width="134.274" height="167.31" rx="10" stroke="none"/><rect x=".5" y=".5" width="133.274" height="166.31" rx="9.5" fill="none"/></g><path data-name="联合 7" d="M60.87 33.568H0V10A10 10 0 0110 0h114.274a10 10 0 0110 10v23.568H73.937L67.4 39.963z" fill="#1276cf"/><g data-name="组 3472"><g data-name="组 19"><text data-name="無料相談・お見積もりへ" transform="translate(11.19 20.19)" fill="#fff" font-size="10" font-family="HiraginoSans-W6, Hiragino Sans" letter-spacing=".011em"><tspan x="0" y="0">無料相談・お見積もりへ</tspan></text></g></g><text data-name="0120-310-823" transform="translate(7.46 63.099)" fill="#fd5858" font-size="19" font-family="Helvetica-Bold, Helvetica" font-weight="700" style="isolation:isolate"><tspan x="0" y="0">0120-310-823</tspan></text><g data-name="组 3538"><text data-name="無料相談 お気軽にお問い合わせください" transform="translate(63.927 79.998)" fill="#414141" font-size="8" font-family="HiraginoSans-W6, Hiragino Sans" letter-spacing=".011em"><tspan x="-16.132" y="0">無料相談</tspan><tspan x="-56.572" y="13">お気軽にお問い合わせください</tspan></text></g><path data-name="路径 1368" d="M7.46 102.141h119.355" fill="none" stroke="#bebebe" stroke-width="3" stroke-dasharray="3 3"/><g data-name="组 19"><text data-name="無料相談 お見積もり" transform="translate(57.013 128.42)" fill="#fff" font-size="9" font-family="HiraginoSans-W6, Hiragino Sans" letter-spacing=".011em"><tspan x="0" y="0">無料相談</tspan><tspan x="0" y="12">お見積もり</tspan></text></g><g data-name="组 3539"><path data-name="路径 1" d="M44.211 116.172l-.014-.032-.012-.007a.57.57 0 00-.268-.146.556.556 0 00-.067-.006.567.567 0 00-.314.03l-27.71 12.34a.566.566 0 00-.234.213.446.446 0 00-.037.052.571.571 0 00-.071.298l-.003.013.014.032a.58.58 0 00.035.16l7.855 17.641a3.345 3.345 0 004.41 1.693l22.674-10.096a3.345 3.345 0 001.693-4.411l-7.855-17.64a.537.537 0 00-.096-.134zm-1.675 1.56l-7.072 14.29a2.161 2.161 0 01-2.301 1.05l-15.385-4.315zm7.457 19.555L27.32 147.384a2.177 2.177 0 01-2.872-1.103l-7.349-16.502 15.786 4.424a3.32 3.32 0 002.046-.213 3.396 3.396 0 001.559-1.419l7.257-14.658 7.349 16.503a2.177 2.177 0 01-1.103 2.871z" fill="#fff"/></g></svg>