<?xml version="1.0" standalone="no"?><!DOCTYPE svg PUBLIC "-//W3C//DTD SVG 1.1//EN" "http://www.w3.org/Graphics/SVG/1.1/DTD/svg11.dtd"><svg class="icon" width="200px" height="200.00px" viewBox="0 0 1024 1024" version="1.1" xmlns="http://www.w3.org/2000/svg"><path fill="#ffffff" d="M853.333333 128H170.666667C99.978667 128 42.666667 185.312 42.666667 256v512c0 70.688 57.312 128 128 128h682.666666c70.688 0 128-57.312 128-128V256c0-70.688-57.312-128-128-128z m0 85.333333c4.928 0 9.664 0.832 14.058667 2.378667L512 500.032 156.608 215.712A42.304 42.304 0 0 1 170.666667 213.333333h682.666666z m0 597.333334H170.666667a42.666667 42.666667 0 0 1-42.666667-42.666667V302.101333l357.344 285.877334c7.786667 6.24 17.216 9.354667 26.656 9.354666s18.88-3.114667 26.656-9.354666L896 302.101333V768a42.666667 42.666667 0 0 1-42.666667 42.666667z" /></svg>