<svg xmlns="http://www.w3.org/2000/svg" width="266.482" height="48.422"><g data-name="组 3514"><g data-name="组 354"><path data-name="路径 289" d="M32.623 19.889a6.33 6.33 0 001.087 3.562 6.408 6.408 0 002.806 2.311 6.345 6.345 0 002.48.5 6.337 6.337 0 003.563-1.089 6.4 6.4 0 002.31-2.804 6.345 6.345 0 00.5-2.48 5.433 5.433 0 00-.41-2 8.855 8.855 0 00-1.268-2.161 16.112 16.112 0 00-4.7-3.915 17.312 17.312 0 00-3.856 2.949 9.571 9.571 0 00-2.2 3.359 5.335 5.335 0 00-.312 1.768z"/><path data-name="路径 290" d="M.52 0v5.244a30.232 30.232 0 0111.029 2.062q.909.359 1.766.771a27.911 27.911 0 014.174-1.6 30.685 30.685 0 018.667-1.233 30.221 30.221 0 0111.075 2.062q.911.359 1.766.771a27.979 27.979 0 014.175-1.6 30.7 30.7 0 018.62-1.233V0z"/><path data-name="路径 291" d="M45.235 12.466a12.854 12.854 0 012.93 4.551 8.629 8.629 0 01.51 2.871 9.632 9.632 0 01-1.654 5.411 9.7 9.7 0 01-4.256 3.505 9.648 9.648 0 01-3.768.761 9.645 9.645 0 01-5.413-1.654 9.7 9.7 0 01-3.5-4.256 9.664 9.664 0 01-.761-3.767 9.173 9.173 0 011.11-4.243 14.424 14.424 0 012.923-3.767 20.031 20.031 0 012.095-1.715 26.115 26.115 0 00-1.559-.517 27.443 27.443 0 00-7.733-1.1 27.045 27.045 0 00-9.293 1.614 19.382 19.382 0 012.691 2.3 12.852 12.852 0 012.929 4.551 8.635 8.635 0 01.511 2.871 9.648 9.648 0 01-1.654 5.411 9.7 9.7 0 01-4.257 3.505 9.647 9.647 0 01-3.767.761 9.643 9.643 0 01-5.413-1.654 9.7 9.7 0 01-3.5-4.256 9.647 9.647 0 01-.761-3.767 9.182 9.182 0 011.109-4.243 14.423 14.423 0 012.923-3.767 20.225 20.225 0 012.095-1.715 25.878 25.878 0 00-1.559-.517 27.463 27.463 0 00-7.685-1.1v25.091h51.271V8.54a27.065 27.065 0 00-9.246 1.614 19.383 19.383 0 012.682 2.312z"/><path data-name="路径 292" d="M6.942 19.889a6.339 6.339 0 001.088 3.562 6.4 6.4 0 002.805 2.311 6.351 6.351 0 002.481.5 6.336 6.336 0 003.562-1.089 6.4 6.4 0 002.311-2.805 6.353 6.353 0 00.5-2.48 5.459 5.459 0 00-.41-2 8.855 8.855 0 00-1.268-2.161 16.132 16.132 0 00-4.7-3.915 17.336 17.336 0 00-3.856 2.949 9.565 9.565 0 00-2.194 3.359 5.311 5.311 0 00-.319 1.769z"/><text transform="translate(0 45.422)" font-size="10" font-family="PingFangSC-Regular, PingFang SC" letter-spacing=".034em"><tspan x="0" y="0">営業時間</tspan></text><text data-name="9:00〜18:00(土日祝除く)" transform="translate(63.989 45.422)" font-size="10" font-family="Helvetica-Bold, Helvetica" font-weight="700"><tspan x="0" y="0">9:00</tspan><tspan y="0" font-family="PingFangSC-Semibold, PingFang SC" font-weight="600">〜</tspan><tspan y="0">18:00</tspan><tspan y="0" font-size="8" font-family="HiraKakuPro-W3, Hiragino Kaku Gothic Pro" font-weight="400">(土日祝除く)</tspan></text><text data-name="0120-310-823" transform="translate(60.482 26.989)" font-size="33" font-family="Helvetica-Bold, Helvetica" font-weight="700" style="isolation:isolate"><tspan x="0" y="0">0120-310-823</tspan></text></g></g></svg>