<?xml version="1.0" encoding="utf-8"?>
<!-- Generator: Adobe Illustrator 25.0.1, SVG Export Plug-In . SVG Version: 6.00 Build 0)  -->
<svg version="1.1" id="レイヤー_1" xmlns="http://www.w3.org/2000/svg" xmlns:xlink="http://www.w3.org/1999/xlink" x="0px"
	 y="0px" viewBox="0 0 119.9 50.6" style="enable-background:new 0 0 119.9 50.6;" xml:space="preserve">
<style type="text/css">
	.st0{fill:none;}
	.st1{fill:none;stroke:#BEBEBE;stroke-width:3;stroke-dasharray:3,3;}
	.st2{fill:#2771F4;stroke:#FFFFFF;stroke-miterlimit:10;}
	.st3{fill:#FFFFFF;}
	.st4{font-family:'HiraginoSans-W4-83pv-RKSJ-H';}
	.st5{font-size:18px;}
</style>
<rect class="st0" width="119.9" height="50.6"/>
<path class="st1" d="M119.4-6"/>
<path class="st2" d="M5,0h109.9c2.8,0,5,2.2,5,5v40.6c0,2.8-2.2,5-5,5H5c-2.8,0-5-2.2-5-5V5C0,2.3,2.2,0,5,0z"/>
<g id="_0120-310-823_1_" transform="translate(7.46 48.099)">
	<text transform="matrix(1 0 0 1 33.5627 -14.7481)" class="st3 st4 st5">電話する</text>
</g>
<g>
	<path class="st3" d="M27.9,44.6c2.5,1.3,5.8,0.9,7.5-0.2c1.8-1.2,1.8-1.9,1.7-2.7c-0.1-0.8-0.7-2.1-2.9-4.1c-1.9-1.7-2.9-2-3.6-2.3
		C30,35.1,28.5,35,28,36c-0.3,0.7-0.7,1.5-1.2,1.7c-0.7,0.2-1.5-0.3-2.2-1c-1.4-1.4-3.5-4.5-4.6-6.5c-1.2-2-2.9-5.3-3.5-7.2
		c-0.3-0.9-0.3-1.9,0.2-2.4c0.4-0.4,1.3-0.3,2.1-0.3c1.1,0.1,1.8-1.3,1.9-2c0.1-0.8,0.3-1.7-0.3-4.2c-0.7-2.8-1.5-3.9-2.2-4.5
		C17.5,9.3,16.8,9,15,10c-1.9,1-3.7,3.7-3.8,6.5c-0.1,2.8,0.4,8.4,4.9,16.1C20.7,40.3,25.4,43.4,27.9,44.6z"/>
</g>
</svg>
