<svg id="组_3630" data-name="组 3630" xmlns="http://www.w3.org/2000/svg" width="134.274" height="167.31" viewBox="0 0 134.274 167.31">
  <g id="矩形_2767" data-name="矩形 2767" transform="translate(0 0)" fill="#fff" stroke="#1276cf" stroke-width="1">
    <rect width="134.274" height="167.31" rx="10" stroke="none"/>
    <rect x="0.5" y="0.5" width="133.274" height="166.31" rx="9.5" fill="none"/>
  </g>
  <path id="联合_7" data-name="联合 7" d="M60.87,33.568H0V10A10,10,0,0,1,10,0H124.274a10,10,0,0,1,10,10V33.568H73.937L67.4,39.963Z" fill="#1276cf"/>
  <g id="组_3472" data-name="组 3472" transform="translate(11.19 11.19)">
    <g id="组_19" data-name="组 19" transform="translate(0 0)">
      <text id="無料相談_お見積もりへ" data-name="無料相談・お見積もりへ" transform="translate(0 9)" fill="#fff" font-size="10" font-family="HiraginoSans-W6, Hiragino Sans" letter-spacing="0.011em"><tspan x="0" y="0">無料相談・お見積もりへ</tspan></text>
    </g>
  </g>
  <g id="_0120-310-823" data-name=" 0120-310-823" transform="translate(7.46 48.099)" style="isolation: isolate">
    <text id="_0120-310-823-2" data-name="0120-310-823" transform="translate(0 15)" fill="#fd5858" font-size="19" font-family="Helvetica-Bold, Helvetica" font-weight="700" style="isolation: isolate"><tspan x="0" y="0">0120-310-823</tspan></text>
  </g>
  <g id="组_3538" data-name="组 3538" transform="translate(6.927 72.998)">
    <text id="無料相談_お気軽にお問い合わせください" data-name="無料相談
お気軽にお問い合わせください" transform="translate(57 7)" fill="#414141" font-size="8" font-family="HiraginoSans-W6, Hiragino Sans" letter-spacing="0.011em"><tspan x="-16.132" y="0">無料相談</tspan><tspan x="-56.572" y="13">お気軽にお問い合わせください</tspan></text>
  </g>
  <path id="路径_1368" data-name="路径 1368" d="M2566,4465.693h119.355" transform="translate(-2558.54 -4363.552)" fill="none" stroke="#bebebe" stroke-width="3" stroke-dasharray="3 3"/>
  <g id="组_19-2" data-name="组 19" transform="translate(57.013 120.42)">
    <text id="無料相談_お見積もり" data-name="無料相談
お見積もり" transform="translate(0 8)" fill="#fff" font-size="9" font-family="HiraginoSans-W6, Hiragino Sans" letter-spacing="0.011em"><tspan x="0" y="0">無料相談</tspan><tspan x="0" y="12">お見積もり</tspan></text>
  </g>
  <g id="组_3539" data-name="组 3539" transform="translate(15.293 115.782)">
    <path id="路径_1" data-name="路径 1" d="M31.452.421c0-.012,0-.023,0-.035L31.443.375a.57.57,0,0,0-.185-.243A.556.556,0,0,0,31.2.1a.567.567,0,0,0-.3-.1H.583a.566.566,0,0,0-.3.1A.446.446,0,0,0,.228.132.571.571,0,0,0,.042.375L.034.386c0,.012,0,.023,0,.035A.579.579,0,0,0,0,.582v19.3a3.343,3.343,0,0,0,3.339,3.339H28.146a3.343,3.343,0,0,0,3.339-3.339V.582A.537.537,0,0,0,31.452.421Zm-2.164.744L17.021,11.336a2.16,2.16,0,0,1-2.528.023L2.2,1.165ZM28.146,22.051H3.339a2.176,2.176,0,0,1-2.174-2.174V1.822L13.779,12.279a3.319,3.319,0,0,0,1.955.638,3.394,3.394,0,0,0,2-.662L30.32,1.822V19.878A2.176,2.176,0,0,1,28.146,22.051Z" transform="matrix(0.914, -0.407, 0.407, 0.914, 0, 12.806)" fill="#fff"/>
  </g>
</svg>
