<svg xmlns="http://www.w3.org/2000/svg" xmlns:xlink="http://www.w3.org/1999/xlink" width="119.888" height="50.644" viewBox="0 0 119.888 50.644"><defs><clipPath id="a"><rect y="6" width="119.888" height="50.644" fill="none"/></clipPath></defs><g transform="translate(-4720.466 -736.306)"><g transform="translate(4720.466 730.306)" clip-path="url(#a)" style="isolation:isolate"><g transform="translate(-7.459 -102.141)"><path d="M2685.355,4465.693" transform="translate(-2558.54 -4363.552)" fill="none" stroke="#bebebe" stroke-width="3" stroke-dasharray="3 3"/><path d="M5,0H114.888a5,5,0,0,1,5,5V45.619a5,5,0,0,1-5,5H5a5,5,0,0,1-5-5V5A5,5,0,0,1,5,0Z" transform="translate(7.46 108.165)" fill="#f79125"/><g transform="translate(57.013 120.42)"><text transform="translate(0 8)" fill="#fff" font-size="9" font-family="HiraginoSans-W6, Hiragino Sans" letter-spacing="0.011em"><tspan x="0" y="0">無料相談</tspan><tspan x="0" y="12">お見積もり</tspan></text></g><g transform="translate(15.293 115.782)"><path d="M31.452.421c0-.012,0-.023,0-.035L31.443.375a.57.57,0,0,0-.185-.243A.556.556,0,0,0,31.2.1a.567.567,0,0,0-.3-.1H.583a.566.566,0,0,0-.3.1A.446.446,0,0,0,.228.132.571.571,0,0,0,.042.375L.034.386c0,.012,0,.023,0,.035A.579.579,0,0,0,0,.582v19.3a3.343,3.343,0,0,0,3.339,3.339H28.146a3.343,3.343,0,0,0,3.339-3.339V.582A.537.537,0,0,0,31.452.421Zm-2.164.744L17.021,11.336a2.16,2.16,0,0,1-2.528.023L2.2,1.165ZM28.146,22.051H3.339a2.176,2.176,0,0,1-2.174-2.174V1.822L13.779,12.279a3.319,3.319,0,0,0,1.955.638,3.394,3.394,0,0,0,2-.662L30.32,1.822V19.878A2.176,2.176,0,0,1,28.146,22.051Z" transform="matrix(0.914, -0.407, 0.407, 0.914, 0, 12.806)" fill="#fff"/></g></g></g><g transform="translate(4825.435 754.448)"><g transform="translate(0)"><circle cx="5.328" cy="5.328" r="5.328" fill="#fff"/><path d="M744.389,37.137l2.051,2.051-2.051,2.05" transform="translate(-739.789 -33.597)" fill="none" stroke="#f79125" stroke-linecap="round" stroke-linejoin="round" stroke-width="2"/></g></g></g></svg>