<svg id="组件_2_1" data-name="组件 2 – 1" xmlns="http://www.w3.org/2000/svg" width="46.007" height="53.324" viewBox="0 0 46.007 53.324">
  <path id="路径_210" data-name="路径 210" d="M56.619-216.015a7.675,7.675,0,0,1-5.425-2.455,15.671,15.671,0,0,1-3.544-6.031,25.689,25.689,0,0,1-1.3-8.194,23.3,23.3,0,0,1,2.779-11.5c1.936-3.344,4.6-5.184,7.494-5.184a8.932,8.932,0,0,1,6.942,3.989,16.471,16.471,0,0,1,3,9.807v1.009l-8.71,3.263-1.022-2.726,6.792-2.544a13.191,13.191,0,0,0-2.393-7.071,6.186,6.186,0,0,0-4.607-2.818c-1.814,0-3.581,1.327-4.975,3.734A20.367,20.367,0,0,0,49.267-232.7c0,5.05,1.527,9.712,3.984,12.165a4.785,4.785,0,0,0,3.369,1.6h.007a6.312,6.312,0,0,0,5.2-2.822,12.144,12.144,0,0,0,2.036-7.038h2.911a15.063,15.063,0,0,1-2.582,8.734,9.189,9.189,0,0,1-7.564,4.036Z" transform="translate(-35.11 249.376)" fill="#fff"/>
  <g id="组_8" data-name="组 8" transform="translate(0 41.51)">
    <path id="路径_205" data-name="路径 205" d="M39.6-211.012c.014.058.014.118.029.176a2.353,2.353,0,0,1,.029.325.762.762,0,0,0,.075.31.437.437,0,0,0,.161.192,2.062,2.062,0,0,0,.207.149,1.631,1.631,0,0,0,.546.221,2.263,2.263,0,0,0,.59.06,1.232,1.232,0,0,0,.222-.029.831.831,0,0,1,.205-.031.943.943,0,0,1,.207.015.939.939,0,0,0,.207.015.483.483,0,0,0,.147-.015.4.4,0,0,1,.133-.015.729.729,0,0,1,.192.031.313.313,0,0,0,.176.043,1.071,1.071,0,0,0,.221-.029.84.84,0,0,1,.193-.014H44.3c.162,0,.251.029.3.087a.737.737,0,0,1,.043.294v.5a.149.149,0,0,1-.074.118c-.058.015-.118.044-.176.058-.074.015-.133.015-.207.031h-.339a.524.524,0,0,1-.149-.031.792.792,0,0,0-.162-.029c-.219,0-.428.015-.648.029s-.428.015-.648.015a.772.772,0,0,1-.192-.029.718.718,0,0,0-.178-.029c-.044,0-.074,0-.089.014a.314.314,0,0,0-.118.015h-.118a.116.116,0,0,1-.058-.029.185.185,0,0,0-.118-.031,2.77,2.77,0,0,0-.354.031,3.017,3.017,0,0,1-.354.014,2.688,2.688,0,0,1-.841-.162,2.838,2.838,0,0,1-.766-.383.881.881,0,0,1-.207-.207,2.146,2.146,0,0,1-.207-.294,1.72,1.72,0,0,1-.176-.31,1.354,1.354,0,0,1-.1-.28.646.646,0,0,1-.014-.236v-.236a.385.385,0,0,1,.014-.118.2.2,0,0,0-.029-.1A.6.6,0,0,0,38.3-211v-.044a.053.053,0,0,1-.015-.044l-.029-.058c.015-.046.044-.1.058-.162a.492.492,0,0,0,.015-.149c0-.147,0-.294-.015-.457s-.029-.3-.029-.443a.779.779,0,0,1,.029-.176.539.539,0,0,0,.015-.162v-.3a1.636,1.636,0,0,1-.015-.28,1.226,1.226,0,0,1,.015-.236,1.213,1.213,0,0,0,.015-.235,2.942,2.942,0,0,0-.044-.516,2.966,2.966,0,0,1-.044-.516,1.934,1.934,0,0,1,.1-.679c.075-.192.149-.4.222-.619a.456.456,0,0,1,.147-.207c.074-.074.133-.133.176-.178.089-.074.178-.162.28-.25a1.676,1.676,0,0,1,.31-.192c.089-.044.192-.074.311-.118.1-.044.221-.074.354-.118a3.151,3.151,0,0,1,.354-.075,2.86,2.86,0,0,1,.31-.029h.221a.156.156,0,0,1,.074.015.17.17,0,0,0,.074.014c.015.015.044.015.089.015a1.9,1.9,0,0,0,.294-.015,1.715,1.715,0,0,1,.267-.014h.089c.014.014.058.014.1.014a.489.489,0,0,1,.132-.029.705.705,0,0,1,.133-.014,3.268,3.268,0,0,1,.532.043c.176.031.354.075.516.119a2.3,2.3,0,0,0,.383.074.921.921,0,0,1,.354.118,2.375,2.375,0,0,1,.708.619,1.963,1.963,0,0,1,.339.884c.015.089.044.178.06.251a1.392,1.392,0,0,1,.029.265v.709a1.4,1.4,0,0,1-.029.265,3.384,3.384,0,0,1-.222.6,1.532,1.532,0,0,1-.368.532.354.354,0,0,1-.149.074.5.5,0,0,0-.161.058,1.415,1.415,0,0,0-.222.118.735.735,0,0,1-.147.075c-.044.014-.1.029-.162.043s-.147.044-.25.074c-.162.046-.325.089-.487.133a1.963,1.963,0,0,1-.5.074.555.555,0,0,1-.161-.029.7.7,0,0,0-.178-.015,1.227,1.227,0,0,0-.236.015,1.73,1.73,0,0,1-.25.029,2.734,2.734,0,0,1-.354-.015,3.029,3.029,0,0,0-.354-.014.841.841,0,0,0-.193.014.931.931,0,0,1-.205.015.4.4,0,0,1-.133-.015.431.431,0,0,0-.132-.014h-.251a1.287,1.287,0,0,0-.265.029.607.607,0,0,0-.193.118.435.435,0,0,0-.072.251v.28a.828.828,0,0,0,.014.192c0,.058,0,.087.015.1A.521.521,0,0,0,39.6-211.012Zm1.843-5.221c-.089.015-.176.044-.265.058-.1.015-.192.044-.28.06-.147.014-.28.044-.4.06a1.751,1.751,0,0,0-.339.117,1.027,1.027,0,0,0-.28.222,1.229,1.229,0,0,0-.207.368.521.521,0,0,0-.029.162,1.818,1.818,0,0,1-.044.178,3.323,3.323,0,0,0-.074.633v.4a1.2,1.2,0,0,0,.015.192,2.108,2.108,0,0,0,.014.3c.015.1.029.207.044.28s.044.118.074.118h.147a1.992,1.992,0,0,1,.28.014,1.544,1.544,0,0,0,.265.015.4.4,0,0,0,.133-.015.431.431,0,0,1,.132-.014.97.97,0,0,1,.193.014c.074.015.132.031.192.046a1.38,1.38,0,0,0,.251.028H41.5a1.238,1.238,0,0,0,.325-.043,2.353,2.353,0,0,1,.325-.031,1.643,1.643,0,0,1,.28.015,1.625,1.625,0,0,0,.28.015.759.759,0,0,0,.162-.031,2.092,2.092,0,0,0,.515-.221.782.782,0,0,0,.355-.4,1.267,1.267,0,0,1,.074-.162,1.646,1.646,0,0,1,.058-.162,1.337,1.337,0,0,0,.1-.294,1.505,1.505,0,0,0,.031-.31,2.363,2.363,0,0,0-.031-.34l-.089-.308a1.055,1.055,0,0,0-.412-.605,1.493,1.493,0,0,0-.693-.251c-.133-.014-.28-.044-.412-.058a4.162,4.162,0,0,0-.429-.015H41.72a1.355,1.355,0,0,0-.236.029Z" transform="translate(-38.254 220.333)" fill="#fff"/>
    <path id="路径_206" data-name="路径 206" d="M47.211-214.47a1.37,1.37,0,0,0-.236-.029.209.209,0,0,0-.1.015.237.237,0,0,1-.1.014,2.316,2.316,0,0,1-.323-.029,2.553,2.553,0,0,0-.325-.014.817.817,0,0,0-.192.014.767.767,0,0,1-.193.015c-.043,0-.087,0-.1-.015a.423.423,0,0,1-.132-.014h-.133a.524.524,0,0,0-.147.014.649.649,0,0,1-.162.015c-.1,0-.178-.044-.193-.133a.7.7,0,0,1-.043-.25v-.385a.273.273,0,0,1,.014-.087c0-.044.015-.06.029-.06a2.354,2.354,0,0,0,.311-.029,1.564,1.564,0,0,1,.279-.029.231.231,0,0,1,.1.014.18.18,0,0,0,.089.015.452.452,0,0,0,.132-.029.269.269,0,0,1,.118-.031.723.723,0,0,1,.178.031.783.783,0,0,0,.192.029.386.386,0,0,0,.132-.015c.046-.014.089-.014.133-.029a.538.538,0,0,1,.162-.015h.236c.044,0,.074,0,.089.015a.26.26,0,0,1,.1.044.2.2,0,0,0,.118.044.5.5,0,0,0,.149-.015.479.479,0,0,1,.147-.015.083.083,0,0,1,.058.015.108.108,0,0,0,.074.015.914.914,0,0,0,.251-.044,1.963,1.963,0,0,1,.265-.029.545.545,0,0,1,.149.014.386.386,0,0,0,.132.015c.162,0,.339,0,.5-.015s.34-.014.5-.014h.31a.535.535,0,0,1,.147.014.5.5,0,0,0,.147.029.436.436,0,0,0,.133-.014h.178a.054.054,0,0,0,.043.014c.015.015.044.015.089.015a1.73,1.73,0,0,0,.25-.029,1.24,1.24,0,0,1,.237-.015c.1,0,.162.044.162.149v.221a.209.209,0,0,1-.015.1.217.217,0,0,0-.015.1.482.482,0,0,0,.015.147.69.69,0,0,1,.015.176c0,.1-.031.149-.1.149a.411.411,0,0,1-.192-.044.5.5,0,0,0-.207-.044,2.642,2.642,0,0,0-.339.014,2.765,2.765,0,0,1-.354.031,3.3,3.3,0,0,1-.546-.044c-.178-.015-.355-.029-.547-.029h-.205a1.037,1.037,0,0,1-.207.014.111.111,0,0,1-.074-.029.211.211,0,0,0-.1-.015,1.885,1.885,0,0,0-.412.044,1.361,1.361,0,0,1-.428.06A1.248,1.248,0,0,1,47.211-214.47Z" transform="translate(-35.705 221.017)" fill="#fff"/>
    <path id="路径_207" data-name="路径 207" d="M58.767-208.522a1.225,1.225,0,0,1-.236-.015l-.221-.043a.335.335,0,0,1-.162-.074.574.574,0,0,1-.149-.3c-.029-.133-.058-.236-.074-.31a1.624,1.624,0,0,1-.074-.354,3.137,3.137,0,0,0-.058-.354,1.54,1.54,0,0,0-.074-.236.715.715,0,0,1-.075-.251,2.141,2.141,0,0,1-.029-.28.574.574,0,0,0-.058-.265c-.044-.1-.089-.221-.133-.325a2.205,2.205,0,0,1-.118-.339,1.931,1.931,0,0,1-.058-.5,3.133,3.133,0,0,0-.074-.5.993.993,0,0,0-.089-.294c-.044-.089-.074-.192-.118-.3a.207.207,0,0,1-.015-.132.419.419,0,0,0-.029-.133c-.015-.044-.044-.089-.06-.132s-.044-.089-.058-.133a.568.568,0,0,1-.029-.162c-.015-.074-.029-.162-.044-.265s-.031-.178-.044-.265a.742.742,0,0,1-.015-.148.185.185,0,0,1,.015-.089v-.087c0-.044-.015-.1-.029-.207-.031-.1-.06-.207-.089-.325a2.845,2.845,0,0,1-.1-.325c-.043-.1-.074-.176-.089-.221a.046.046,0,0,1,.015.029.86.86,0,0,1-.058.325c-.044.118-.089.236-.118.34-.058.221-.1.457-.147.677a5.756,5.756,0,0,1-.178.679.053.053,0,0,0,.015.044v.06a.951.951,0,0,1-.06.205c-.043.118-.058.192-.074.236-.015.075-.029.133-.044.192-.014.075-.044.133-.058.207-.015.044-.029.074-.015.1a.3.3,0,0,1-.014.1c-.015.089-.046.176-.06.251a1.026,1.026,0,0,1-.089.25,1.212,1.212,0,0,0-.074.354,2.4,2.4,0,0,1-.058.369c-.044.132-.074.279-.1.412s-.058.28-.089.414c-.014.1-.029.205-.043.308a1.208,1.208,0,0,1-.074.325.611.611,0,0,1-.075.133.506.506,0,0,0-.058.133c-.015.1-.029.192-.044.294s-.029.207-.044.3c-.015.074-.029.176-.044.279a.281.281,0,0,1-.162.222,1.222,1.222,0,0,1-.31.089,2.89,2.89,0,0,1-.339.014h-.619a.288.288,0,0,1-.237-.117,1.671,1.671,0,0,0-.087-.162c-.044-.075-.074-.162-.118-.251a.947.947,0,0,1-.089-.265.551.551,0,0,1-.044-.162,1.226,1.226,0,0,1,.015-.236,1.234,1.234,0,0,0-.031-.236c-.014-.031-.014-.06-.029-.089s-.014-.044-.029-.058c-.015-.046-.029-.1-.044-.162s-.044-.118-.058-.162a2.421,2.421,0,0,1-.1-.3,1.629,1.629,0,0,1-.1-.28,1.649,1.649,0,0,1-.06-.279c-.014-.1-.029-.192-.043-.28a1.331,1.331,0,0,0-.089-.325,2.664,2.664,0,0,1-.1-.325c-.044-.147-.089-.294-.119-.443s-.074-.294-.117-.441c-.015-.074-.046-.149-.06-.222a.815.815,0,0,1-.074-.205,3.824,3.824,0,0,1-.06-.487,1.1,1.1,0,0,0-.1-.414,2.776,2.776,0,0,1-.162-.428c-.029-.1-.074-.25-.118-.428-.044-.147-.074-.294-.118-.443s-.087-.294-.133-.428c-.014-.058-.043-.118-.058-.176a1.651,1.651,0,0,1-.058-.162,2.471,2.471,0,0,1-.06-.369,1.294,1.294,0,0,0-.089-.339.314.314,0,0,0,.118-.015h.118a1.916,1.916,0,0,1,.3.015,1.787,1.787,0,0,0,.28.014h.087a.084.084,0,0,0,.089-.014h.178c.043,0,.074.029.118.074a.588.588,0,0,1,.1.162,1.511,1.511,0,0,1,.074.192.9.9,0,0,1,.029.162c.015.014.015.06.015.1a1.741,1.741,0,0,0,.029.28c.015.1.044.193.06.28a3.734,3.734,0,0,1,.1.4,2,2,0,0,0,.133.383c.014.029.044.06.058.089a.277.277,0,0,1,.015.1,2.261,2.261,0,0,0,.1.723,4.956,4.956,0,0,0,.251.693c.015.015.015.015.015.031a.054.054,0,0,0,.014.043.92.92,0,0,0,.074.428,1.92,1.92,0,0,1,.118.443c.015.118.044.236.06.355s.044.25.058.368a5.2,5.2,0,0,0,.149.516c.043.176.1.354.147.53.014.044.029.1.058.207a2.649,2.649,0,0,0,.074.323,1.334,1.334,0,0,0,.074.282c.031.089.06.132.075.132.043,0,.074-.058.087-.176s.015-.178.029-.222a2.139,2.139,0,0,1,.1-.412c.044-.133.074-.265.1-.4.014-.1.043-.192.058-.265a2.2,2.2,0,0,1,.058-.251.354.354,0,0,0,.06-.147c.014-.074.029-.162.043-.267s.015-.19.031-.279a.594.594,0,0,1,.015-.178,1.439,1.439,0,0,1,.117-.412,1.033,1.033,0,0,0,.089-.414.2.2,0,0,0-.014-.089c-.015-.014-.015-.043-.015-.074,0-.014,0-.014.015-.029v-.044a.963.963,0,0,1,.1-.294,1.559,1.559,0,0,0,.1-.28.738.738,0,0,0,.031-.31.573.573,0,0,1,.043-.31.438.438,0,0,0,.075-.133c.014-.074.029-.118.029-.133a.721.721,0,0,0,.029-.192.261.261,0,0,1,.015-.089c.014-.043.029-.087.044-.147.015-.044.015-.1.029-.147a.252.252,0,0,0,.015-.089c.058-.221.118-.441.162-.664A6.084,6.084,0,0,1,55.6-217a.36.36,0,0,1,.208-.207,1.038,1.038,0,0,1,.308-.06,2.8,2.8,0,0,1,.311-.014c.1,0,.236.014.383.029a.5.5,0,0,1,.339.162.832.832,0,0,1,.133.207,2.332,2.332,0,0,1,.074.236,6.759,6.759,0,0,1,.236,1.076,5.541,5.541,0,0,0,.25,1.077,2.04,2.04,0,0,1,.1.412,1.977,1.977,0,0,0,.1.429l.043.132a.488.488,0,0,1,.015.149,1.685,1.685,0,0,0,.044.354c.029.132.058.265.087.368a.53.53,0,0,0,.075.162.991.991,0,0,1,.074.176,1.832,1.832,0,0,1,.058.354.541.541,0,0,0,.074.311c.015.014.015.058.031.1s.014.1.029.162.014.118.029.162v.117c.015.075.031.162.044.266a.443.443,0,0,0,.089.25.212.212,0,0,0,.014.075c.015.044.029.1.044.147s.015.118.031.162a.271.271,0,0,1,.014.089.99.99,0,0,0,.044.162c.015.087.044.132.058.132s.031-.015.046-.044v-.058c.014-.075.043-.133.058-.207s.029-.118.044-.193a2.364,2.364,0,0,0,.089-.486,2.024,2.024,0,0,1,.1-.457c.014-.06.044-.118.058-.178.015-.043.029-.1.044-.162.074-.339.147-.662.236-.987.074-.311.162-.634.236-.974.015-.087.029-.176.044-.28.015-.089.031-.176.044-.265.044-.192.089-.368.133-.559s.1-.355.147-.532a2.8,2.8,0,0,0,.133-.679,2.687,2.687,0,0,1,.117-.677,1.946,1.946,0,0,1,.133-.311,1.145,1.145,0,0,1,.147-.279.334.334,0,0,1,.178-.075,1.987,1.987,0,0,1,.294-.014h.28a.808.808,0,0,0,.149.014h.176a.2.2,0,0,1,.162.06v.089c0,.014-.015.058-.031.118l-.087.221c-.029.074-.058.162-.089.236s-.044.133-.058.176a14.1,14.1,0,0,1-.414,1.594,1.958,1.958,0,0,0-.089.4,2.082,2.082,0,0,1-.087.412c-.015.031-.046.089-.089.193a1.42,1.42,0,0,0-.074.176c-.015.118-.029.221-.044.294a3.071,3.071,0,0,1-.1.3.79.79,0,0,0-.058.31,2.66,2.66,0,0,1-.058.325c-.015.044-.031.1-.046.162s-.029.117-.043.162a.57.57,0,0,0-.044.221c-.015.074-.029.162-.044.236l-.176.441a2.54,2.54,0,0,0-.119.562.621.621,0,0,1-.074.192.957.957,0,0,0-.087.19,1.687,1.687,0,0,0-.162.605,2.128,2.128,0,0,1-.147.619.543.543,0,0,1-.34.355,1.736,1.736,0,0,1-.487.058Z" transform="translate(-33.396 220.32)" fill="#fff"/>
    <path id="路径_208" data-name="路径 208" d="M61.233-211.012c.015.058.015.118.029.176a2.357,2.357,0,0,1,.031.325.783.783,0,0,0,.074.31.447.447,0,0,0,.161.192,1.894,1.894,0,0,0,.208.149,1.62,1.62,0,0,0,.546.221,2.256,2.256,0,0,0,.59.06,1.2,1.2,0,0,0,.221-.029.842.842,0,0,1,.207-.031.931.931,0,0,1,.205.015.951.951,0,0,0,.208.015.475.475,0,0,0,.146-.015.4.4,0,0,1,.133-.015.719.719,0,0,1,.192.031.316.316,0,0,0,.176.043,1.1,1.1,0,0,0,.222-.029.828.828,0,0,1,.192-.014h1.166c.162,0,.25.029.294.087a.732.732,0,0,1,.044.294v.5a.152.152,0,0,1-.074.118c-.06.015-.118.044-.176.058-.075.015-.133.015-.208.031h-.339a.515.515,0,0,1-.147-.031.808.808,0,0,0-.162-.029c-.221,0-.428.015-.65.029s-.428.015-.648.015a.783.783,0,0,1-.192-.029.708.708,0,0,0-.178-.029c-.043,0-.074,0-.089.014a.307.307,0,0,0-.117.015h-.118a.12.12,0,0,1-.06-.029.182.182,0,0,0-.118-.031,2.792,2.792,0,0,0-.354.031,3.017,3.017,0,0,1-.354.014,2.7,2.7,0,0,1-.841-.162,2.88,2.88,0,0,1-.766-.383.936.936,0,0,1-.207-.207,2.024,2.024,0,0,1-.205-.294,1.73,1.73,0,0,1-.178-.31,1.268,1.268,0,0,1-.1-.28.617.617,0,0,1-.015-.236v-.236a.352.352,0,0,1,.015-.118.2.2,0,0,0-.031-.1.546.546,0,0,0-.028-.089v-.044a.053.053,0,0,1-.015-.044l-.031-.058c.015-.046.046-.1.06-.162a.539.539,0,0,0,.014-.149c0-.147,0-.294-.014-.457s-.029-.3-.029-.443a.779.779,0,0,1,.029-.176.591.591,0,0,0,.014-.162v-.3a1.8,1.8,0,0,1-.014-.28,1.347,1.347,0,0,1,.014-.236,1.212,1.212,0,0,0,.015-.235,3.084,3.084,0,0,0-.043-.516,2.836,2.836,0,0,1-.046-.516,1.933,1.933,0,0,1,.1-.679c.074-.192.147-.4.221-.619a.45.45,0,0,1,.149-.207l.176-.178c.089-.074.178-.162.28-.25a1.589,1.589,0,0,1,.31-.192c.089-.044.192-.074.31-.118.1-.044.222-.074.354-.118a3.219,3.219,0,0,1,.354-.075,2.892,2.892,0,0,1,.31-.029h.222a.159.159,0,0,1,.074.015.167.167,0,0,0,.074.014c.014.015.044.015.087.015a1.907,1.907,0,0,0,.3-.015,1.706,1.706,0,0,1,.265-.014h.089c.014.014.06.014.1.014a.506.506,0,0,1,.133-.029.686.686,0,0,1,.132-.014,3.268,3.268,0,0,1,.532.043c.178.031.354.075.516.119a2.329,2.329,0,0,0,.383.074.905.905,0,0,1,.354.118,2.375,2.375,0,0,1,.708.619,1.931,1.931,0,0,1,.339.884c.015.089.046.178.06.251a1.288,1.288,0,0,1,.029.265v.709a1.3,1.3,0,0,1-.029.265,3.48,3.48,0,0,1-.221.6,1.534,1.534,0,0,1-.369.532.349.349,0,0,1-.147.074.524.524,0,0,0-.162.058,1.325,1.325,0,0,0-.221.118.71.71,0,0,1-.149.075c-.043.014-.1.029-.162.043s-.147.044-.25.074c-.162.046-.325.089-.486.133a1.963,1.963,0,0,1-.5.074.556.556,0,0,1-.162-.029.7.7,0,0,0-.176-.015,1.241,1.241,0,0,0-.237.015,1.73,1.73,0,0,1-.25.029,2.744,2.744,0,0,1-.354-.015,3.017,3.017,0,0,0-.354-.014.822.822,0,0,0-.192.014.944.944,0,0,1-.207.015.386.386,0,0,1-.132-.015.44.44,0,0,0-.133-.014h-.251a1.287,1.287,0,0,0-.265.029.6.6,0,0,0-.192.118.425.425,0,0,0-.074.251v.28a.828.828,0,0,0,.014.192c0,.058,0,.087.015.1A.565.565,0,0,0,61.233-211.012Zm1.843-5.221c-.089.015-.176.044-.265.058s-.192.044-.28.06c-.147.014-.279.044-.4.06a1.785,1.785,0,0,0-.339.117,1.027,1.027,0,0,0-.28.222,1.2,1.2,0,0,0-.205.368.52.52,0,0,0-.031.162,1.488,1.488,0,0,1-.044.178,3.324,3.324,0,0,0-.074.633v.4a1.2,1.2,0,0,0,.015.192,2.108,2.108,0,0,0,.014.3c.015.1.031.207.044.28s.044.118.075.118h.146a2.022,2.022,0,0,1,.282.014,1.544,1.544,0,0,0,.265.015.39.39,0,0,0,.132-.015.436.436,0,0,1,.133-.014.956.956,0,0,1,.192.014c.074.015.133.031.192.046A1.381,1.381,0,0,0,62.9-213h.236a1.254,1.254,0,0,0,.325-.043,2.314,2.314,0,0,1,.323-.031,1.627,1.627,0,0,1,.28.015,1.642,1.642,0,0,0,.28.015.744.744,0,0,0,.162-.031,2.1,2.1,0,0,0,.516-.221.779.779,0,0,0,.354-.4,1.5,1.5,0,0,1,.074-.162,1.627,1.627,0,0,1,.06-.162,1.413,1.413,0,0,0,.1-.294,1.63,1.63,0,0,0,.029-.31,2.587,2.587,0,0,0-.029-.34l-.089-.308a1.068,1.068,0,0,0-.412-.605,1.5,1.5,0,0,0-.694-.251c-.133-.014-.279-.044-.412-.058a4.148,4.148,0,0,0-.429-.015h-.221a1.389,1.389,0,0,0-.236.029Z" transform="translate(-29.857 220.333)" fill="#fff"/>
    <path id="路径_209" data-name="路径 209" d="M73.278-210.342c.015.162.015.339.015.5a1.623,1.623,0,0,1-.192.781,5.771,5.771,0,0,1-.428.708.7.7,0,0,1-.384.265,1.969,1.969,0,0,0-.441.178.731.731,0,0,1-.237.1,1.334,1.334,0,0,1-.205.058l-.265.044c-.1.014-.193.014-.28.029a1.171,1.171,0,0,1-.207.015,4.3,4.3,0,0,1-.443-.015,4.271,4.271,0,0,0-.441-.015c-.178,0-.385,0-.62.015a1.754,1.754,0,0,1-.634-.074c-.074-.015-.147-.044-.205-.058-.06-.031-.133-.06-.207-.089s-.162-.06-.251-.089a1.256,1.256,0,0,1-.25-.074,1.594,1.594,0,0,1-.516-.354,1.572,1.572,0,0,1-.383-.487.722.722,0,0,1-.1-.265c-.014-.1-.044-.192-.058-.28s-.044-.192-.06-.3a1.923,1.923,0,0,1-.029-.294.53.53,0,0,1,.014-.147.4.4,0,0,0,.015-.133,1.227,1.227,0,0,0-.015-.236,1.18,1.18,0,0,1-.014-.221.768.768,0,0,1,.014-.178.689.689,0,0,0,.015-.176c0-.162-.015-.31-.029-.472s-.029-.31-.029-.472v-.1a.48.48,0,0,0,.043-.207,1.566,1.566,0,0,0-.029-.28,1.74,1.74,0,0,1-.029-.28v-.325a2.325,2.325,0,0,1,.015-.325c.014-.1.014-.205.029-.294a2,2,0,0,0,.014-.3c0-.161,0-.339-.014-.5s-.029-.339-.029-.5v-.251a.847.847,0,0,1,.043-.265,1.256,1.256,0,0,0,.031-.25,3.741,3.741,0,0,0-.015-.414,3.478,3.478,0,0,1-.015-.4,1.18,1.18,0,0,0-.014-.221,1.106,1.106,0,0,1-.029-.222.756.756,0,0,1,.014-.176v-.178a.591.591,0,0,0-.014-.162.53.53,0,0,1-.015-.162.928.928,0,0,1,.029-.205.639.639,0,0,0,.029-.192.512.512,0,0,0-.029-.148.548.548,0,0,1-.029-.162.858.858,0,0,1,.044-.279,1.74,1.74,0,0,0,.029-.28v-.089a.18.18,0,0,1-.015-.089.092.092,0,0,1,.075-.087c.044-.015.1-.031.162-.044a.684.684,0,0,1,.176-.015h.265c.074.015.149.015.222.029s.147.015.221.031a.2.2,0,0,1,.118.058.356.356,0,0,1,.015.147,1.637,1.637,0,0,1-.015.28,1.636,1.636,0,0,0-.015.28.422.422,0,0,0,.031.133.427.427,0,0,1,.014.132,2.316,2.316,0,0,1-.029.325,1.589,1.589,0,0,0-.044.4,3.113,3.113,0,0,0,.014.368,2.884,2.884,0,0,1,.015.369v.325a2.3,2.3,0,0,0-.015.325v.1a.265.265,0,0,0,0,.147.422.422,0,0,0,.031.133c.015.044.029.058.074.058a.392.392,0,0,0,.118-.043.665.665,0,0,0,.162-.089,1.119,1.119,0,0,1,.178-.1,1.087,1.087,0,0,1,.117-.072c.075-.031.162-.06.28-.1.119-.029.236-.058.369-.089.118-.015.236-.044.354-.058a2.212,2.212,0,0,1,.294-.015,1.705,1.705,0,0,1,.28.029.723.723,0,0,0,.267.044.687.687,0,0,0,.176-.015.824.824,0,0,1,.192-.014,2,2,0,0,1,.28.014c.089.015.176.015.265.031.133.015.28.029.428.044a1.287,1.287,0,0,1,.414.118,1.191,1.191,0,0,1,.265.161,1.344,1.344,0,0,0,.251.162,1.37,1.37,0,0,1,.546.532,2.489,2.489,0,0,1,.221.737,3.233,3.233,0,0,0,.075.325,2.8,2.8,0,0,1,.028.325c0,.25,0,.486-.014.737s-.014.487-.014.737c0,.221,0,.428.014.648s-.014.429-.029.65a.5.5,0,0,1-.015.149.474.474,0,0,0-.015.146C73.263-210.682,73.263-210.5,73.278-210.342Zm-2.832,1.637a2.751,2.751,0,0,0,.487-.043,1.342,1.342,0,0,0,.472-.133,1.283,1.283,0,0,0,.368-.251.933.933,0,0,0,.237-.428,1.236,1.236,0,0,0,.043-.325v-.31a2.311,2.311,0,0,0-.014-.31,2.1,2.1,0,0,1-.015-.309,2.314,2.314,0,0,1,.015-.325,2.311,2.311,0,0,0,.014-.31.529.529,0,0,0-.014-.147.488.488,0,0,1-.015-.147v-.516a.5.5,0,0,1,.015-.149.419.419,0,0,1,.029-.132.314.314,0,0,0,.015-.118,3.2,3.2,0,0,0-.015-.383,3.049,3.049,0,0,1-.029-.385c0-.176,0-.339.014-.5a4.26,4.26,0,0,0-.014-.428,1.848,1.848,0,0,0-.1-.383,1.518,1.518,0,0,0-.265-.4.151.151,0,0,0-.074-.044c-.044-.014-.1-.044-.149-.06s-.117-.029-.161-.043a.324.324,0,0,0-.1-.015,2.906,2.906,0,0,1-.323-.089.548.548,0,0,0-.31,0h-.178a.689.689,0,0,1-.176-.015.773.773,0,0,0-.178-.014,3.294,3.294,0,0,0-.354.029c-.132.031-.25.06-.354.074-.192.044-.4.089-.605.133a1.675,1.675,0,0,0-.575.236.761.761,0,0,0-.25.28,2,2,0,0,0-.133.4c-.029.147-.044.294-.06.428a3.6,3.6,0,0,0-.015.383c0,.029,0,.06.015.074v.089a1.224,1.224,0,0,1-.015.236c-.014.089-.028.178-.043.251v.192a.75.75,0,0,0-.015.192,3.757,3.757,0,0,0,.031.441c.014.149.028.311.028.487a1.73,1.73,0,0,1-.028.28.985.985,0,0,0-.044.3,1.18,1.18,0,0,0,.044.323,1.314,1.314,0,0,1,.043.325,1.224,1.224,0,0,1-.015.236,1.346,1.346,0,0,0-.014.236.718.718,0,0,0,.029.162,1.777,1.777,0,0,0,.044.176.772.772,0,0,0,.265.385.939.939,0,0,0,.4.236.168.168,0,0,0,.117,0h.133a1.02,1.02,0,0,1,.369.058.959.959,0,0,0,.368.074Z" transform="translate(-27.329 219.471)" fill="#fff"/>
  </g>
</svg>
