<svg xmlns="http://www.w3.org/2000/svg" width="266.482" height="48.422" viewBox="0 0 266.482 48.422">
  <g id="组_3514" data-name="组 3514" transform="translate(0 -3)">
    <g id="组_354" data-name="组 354" transform="translate(0 3)">
      <path id="路径_289" data-name="路径 289" d="M-772.246-108.44a6.33,6.33,0,0,0,1.087,3.562,6.408,6.408,0,0,0,2.806,2.311,6.345,6.345,0,0,0,2.48.5,6.337,6.337,0,0,0,3.563-1.089A6.4,6.4,0,0,0-760-105.96a6.345,6.345,0,0,0,.5-2.48,5.433,5.433,0,0,0-.41-2,8.855,8.855,0,0,0-1.268-2.161,16.112,16.112,0,0,0-4.7-3.915,17.312,17.312,0,0,0-3.856,2.949,9.571,9.571,0,0,0-2.2,3.359A5.335,5.335,0,0,0-772.246-108.44Z" transform="translate(804.869 128.329)"/>
      <path id="路径_290" data-name="路径 290" d="M-806.19-129.006v5.244a30.232,30.232,0,0,1,11.029,2.062q.909.359,1.766.771a27.911,27.911,0,0,1,4.174-1.6,30.685,30.685,0,0,1,8.667-1.233,30.221,30.221,0,0,1,11.075,2.062q.911.359,1.766.771a27.979,27.979,0,0,1,4.175-1.6,30.7,30.7,0,0,1,8.62-1.233v-5.244Z" transform="translate(806.71 129.006)"/>
      <path id="路径_291" data-name="路径 291" d="M-761.475-116.05a12.854,12.854,0,0,1,2.93,4.551,8.629,8.629,0,0,1,.51,2.871,9.632,9.632,0,0,1-1.654,5.411,9.7,9.7,0,0,1-4.256,3.505,9.648,9.648,0,0,1-3.768.761,9.645,9.645,0,0,1-5.413-1.654,9.7,9.7,0,0,1-3.5-4.256,9.664,9.664,0,0,1-.761-3.767,9.173,9.173,0,0,1,1.11-4.243,14.424,14.424,0,0,1,2.923-3.767,20.031,20.031,0,0,1,2.095-1.715c-.506-.185-1.025-.359-1.559-.517a27.443,27.443,0,0,0-7.733-1.1,27.045,27.045,0,0,0-9.293,1.614,19.382,19.382,0,0,1,2.691,2.3,12.852,12.852,0,0,1,2.929,4.551,8.635,8.635,0,0,1,.511,2.871,9.648,9.648,0,0,1-1.654,5.411,9.7,9.7,0,0,1-4.257,3.505,9.647,9.647,0,0,1-3.767.761,9.643,9.643,0,0,1-5.413-1.654,9.7,9.7,0,0,1-3.5-4.256,9.647,9.647,0,0,1-.761-3.767,9.182,9.182,0,0,1,1.109-4.243,14.423,14.423,0,0,1,2.923-3.767,20.225,20.225,0,0,1,2.095-1.715c-.506-.185-1.024-.359-1.559-.517a27.463,27.463,0,0,0-7.685-1.1v25.091h51.271v-25.091a27.065,27.065,0,0,0-9.246,1.614A19.383,19.383,0,0,1-761.475-116.05Z" transform="translate(806.71 128.516)"/>
      <path id="路径_292" data-name="路径 292" d="M-799.4-108.44a6.339,6.339,0,0,0,1.088,3.562,6.4,6.4,0,0,0,2.805,2.311,6.351,6.351,0,0,0,2.481.5,6.336,6.336,0,0,0,3.562-1.089,6.4,6.4,0,0,0,2.311-2.805,6.353,6.353,0,0,0,.5-2.48,5.459,5.459,0,0,0-.41-2,8.855,8.855,0,0,0-1.268-2.161,16.132,16.132,0,0,0-4.7-3.915,17.336,17.336,0,0,0-3.856,2.949,9.565,9.565,0,0,0-2.194,3.359A5.311,5.311,0,0,0-799.4-108.44Z" transform="translate(806.342 128.329)"/>
      <text id="営業時間" transform="translate(0 45.422)" font-size="10" font-family="PingFangSC-Regular, PingFang SC" letter-spacing="0.034em"><tspan x="0" y="0">営業時間</tspan></text>
      <text id="_9:00_18:00_土日祝除く_" data-name="9:00〜18:00(土日祝除く)" transform="translate(63.989 45.422)" font-size="10" font-family="Helvetica-Bold, Helvetica" font-weight="700"><tspan x="0" y="0">9:00</tspan><tspan y="0" font-family="PingFangSC-Semibold, PingFang SC" font-weight="600">〜</tspan><tspan y="0">18:00</tspan><tspan y="0" font-size="8" font-family="HiraKakuPro-W3, Hiragino Kaku Gothic Pro" font-weight="400">(土日祝除く)</tspan></text>
      <g id="_0120-310-823" data-name=" 0120-310-823" transform="translate(60.482 1.989)" style="isolation: isolate">
        <text id="_0120-310-823-2" data-name="0120-310-823" transform="translate(0 25)" font-size="33" font-family="Helvetica-Bold, Helvetica" font-weight="700" style="isolation: isolate"><tspan x="0" y="0">0120-310-823</tspan></text>
      </g>
    </g>
  </g>
</svg>
